<svg xmlns="http://www.w3.org/2000/svg" width="32" height="32" viewBox="0 0 32 32">
  <g id="vuesax_bulk_layer" data-name="vuesax/bulk/layer" transform="translate(-620 -380)">
    <g id="layer" transform="translate(620 380)">
      <path id="Vector" d="M21.92,3.86,14.107.38a5.524,5.524,0,0,0-4.027,0L2.267,3.86C.293,4.74,0,5.94,0,6.58S.293,8.42,2.267,9.3l7.813,3.48a5.114,5.114,0,0,0,2.013.387,5.114,5.114,0,0,0,2.013-.387L21.92,9.3c1.973-.88,2.267-2.08,2.267-2.72S23.907,4.74,21.92,3.86Z" transform="translate(3.907 2.66)" fill="#0bb783" />
      <path id="Vector-2" data-name="Vector" d="M12.907,9.053a3.772,3.772,0,0,1-1.48-.307l-8.987-4A4.395,4.395,0,0,1,0,.987a.987.987,0,0,1,1.973,0A2.42,2.42,0,0,0,3.24,2.933l8.987,4a1.689,1.689,0,0,0,1.347,0l8.987-4A2.4,2.4,0,0,0,23.827.987a.987.987,0,0,1,1.973,0,4.412,4.412,0,0,1-2.44,3.76l-8.987,4A3.66,3.66,0,0,1,12.907,9.053Z" transform="translate(3.093 13.667)" fill="#0bb783" opacity="0.4" />
      <path id="Vector-3" data-name="Vector" d="M12.907,9.053a3.772,3.772,0,0,1-1.48-.307l-8.987-4A4.113,4.113,0,0,1,0,.987a.987.987,0,0,1,1.973,0A2.132,2.132,0,0,0,3.24,2.933l8.987,4a1.689,1.689,0,0,0,1.347,0l8.987-4A2.14,2.14,0,0,0,23.827.987a.987.987,0,0,1,1.973,0,4.127,4.127,0,0,1-2.44,3.76l-8.987,4A3.66,3.66,0,0,1,12.907,9.053Z" transform="translate(3.093 20.28)" fill="#0bb783" opacity="0.4" />
      <path id="Vector-4" data-name="Vector" d="M0,0H32V32H0Z" fill="none" opacity="0" />
    </g>
  </g>
</svg>