<svg xmlns="http://www.w3.org/2000/svg" width="32" height="32" viewBox="0 0 32 32">
  <g id="vuesax_bulk_coin" data-name="vuesax/bulk/coin" transform="translate(-684 -444)">
    <g id="coin" transform="translate(684 444)">
      <path id="Vector" d="M21.307,10.653A10.653,10.653,0,1,1,10.653,0,10.653,10.653,0,0,1,21.307,10.653Z" transform="translate(2.667 2.667)" fill="#f64e60" opacity="0.4" />
      <path id="Vector-2" data-name="Vector" d="M14.52,6.547A7.971,7.971,0,0,1,0,11.093,12.611,12.611,0,0,0,11.093,0,7.959,7.959,0,0,1,14.52,6.547Z" transform="translate(14.773 14.773)" fill="#f64e60" />
      <path id="Vector-3" data-name="Vector" d="M5.6,5.4,2.4,4.28c-.32-.107-.387-.133-.387-.6a.587.587,0,0,1,.547-.627h2a.823.823,0,0,1,.773.867,1,1,0,1,0,2,0A2.831,2.831,0,0,0,4.667,1.067V1a1,1,0,0,0-2,0v.067h-.12A2.59,2.59,0,0,0,0,3.693a2.369,2.369,0,0,0,1.72,2.48l3.213,1.12c.32.107.387.133.387.6a.587.587,0,0,1-.547.627h-2A.823.823,0,0,1,2,7.653a1.007,1.007,0,0,0-1-1,1.007,1.007,0,0,0-1,1,2.831,2.831,0,0,0,2.667,2.853v.08a1,1,0,0,0,2,0V10.52h.12A2.59,2.59,0,0,0,7.333,7.893,2.4,2.4,0,0,0,5.6,5.4Z" transform="translate(9.667 7.547)" fill="#f64e60" />
      <path id="Vector-4" data-name="Vector" d="M0,0H32V32H0Z" fill="none" opacity="0" />
    </g>
  </g>
</svg>